<svg version="1.1" xmlns="http://www.w3.org/2000/svg" xmlns:xlink="http://www.w3.org/1999/xlink" x="0px" y="0px" viewBox="0 0 134 117.3"><style type="text/css">.st3{fill: none;}.st5{fill: #8bbfbc;}</style><g><path class="st5" d="M58.7,53.6c1.1-0.6,2.2-1.5,3.1-2.5c-4.7-1.8-8.6-6-8.5-12.8c0-1.4,0.2-2.9,0.4-4.3c-4.3-3.7-9.3-5.4-13-6.3 c-0.9,8-0.2,14.6,2.1,19.8c3.9,0.5,7.3,1.3,10.3,2.3c2.4,0.8,3.8,2.5,4.4,4.4C57.9,54,58.3,53.8,58.7,53.6z"/><path class="st5" d="M57.6,29.6c2.7,2,5.3,4.7,7.2,8.3c1.9,3.5,2.4,8.1,0.3,12c0.4,0.1,0.8,0.1,1.2,0.1c0.8,0.1,1.7,0,2.6-0.1 c-2.1-4-1.6-8.5,0.3-12.1c2.1-3.9,4.9-6.7,7.9-8.8c-3.4-8.6-8.8-14.7-8.8-14.7C63.2,19.7,59.8,24.8,57.6,29.6z"/><path class="st5" d="M70.9,38.9c-2.2,4-1.7,7.8,0.1,10.6c3.8-1.2,7-4.2,7.6-9.5c0.3-3.1,0.1-6.1-0.5-9 C75.3,32.8,72.8,35.4,70.9,38.9z"/><path class="st5" d="M38.7,27.4c-2.1-0.3-3.5-0.4-3.5-0.4c-1.3,8.4-0.9,14.9,0.6,19.9c1.6,0.1,3.2,0.2,4.7,0.4 C38.4,42,37.8,35.3,38.7,27.4z"/><path class="st5" d="M91.1,47.6c2.4-5.2,3.1-11.9,2.1-20c-3.5,0.7-8.4,2.2-12.8,5.6c0.3,2.3,0.4,4.6,0.1,7 c-0.6,5.9-4.1,9.5-8.3,11c0.9,1,1.9,1.8,3,2.4c0.4,0.2,0.8,0.4,1.3,0.6c0.6-1.9,2-3.5,4.4-4.3C83.8,48.9,87.2,48.2,91.1,47.6z"/><path class="st5" d="M96.5,49.1c-1.4,0.1-2.7,0.2-4,0.4c-0.3,0.5-0.5,1-0.8,1.5c-2.7,4.4-6.6,6.2-10.5,6.2c-1,0-2-0.1-3-0.3 c0,0.4,0.1,0.8,0.2,1.2c0.7,2.3,2.8,4.2,6,3.3c6.8-1.9,12.4-6.6,15.8-10.1c-1.7,0.1-3.3,0.2-4.8,0.3C95.8,50.8,96.1,50,96.5,49.1z "/><path class="st5" d="M93.4,47.4c1.2-0.1,2.5-0.2,3.8-0.3c1.5-5,1.9-11.5,0.6-20c0,0-1,0-2.5,0.2C96.2,35.3,95.5,42,93.4,47.4z"/><path class="st5" d="M42.4,51c-0.3-0.5-0.6-1.1-0.9-1.6c-1.6-0.2-3.3-0.3-5-0.5c0.3,0.9,0.7,1.7,1.1,2.5c-1.2-0.1-2.4-0.2-3.7-0.2 c3.4,3.5,9,8.3,15.8,10.1c3.2,0.9,5.3-1,6-3.3c0.1-0.4,0.2-0.8,0.2-1.1c-1,0.2-2,0.4-3,0.4C49,57.2,45.1,55.5,42.4,51z"/><path class="st5" d="M78.4,54.9c4,1,8.6-0.1,11.5-4.9c0-0.1,0.1-0.1,0.1-0.2c-3.2,0.5-6,1.1-8.4,2c0,0,0,0,0,0 C79.8,52.4,78.8,53.5,78.4,54.9z"/><path class="st5" d="M55.6,54.8c-0.4-1.3-1.4-2.5-3.2-3.1c0,0,0,0,0,0c-2.4-0.8-5.3-1.5-8.5-2c0,0.1,0.1,0.2,0.1,0.2h0 C47,54.8,51.6,55.8,55.6,54.8z"/><path class="st5" d="M84.9,63.4c-0.7,0.2-1.4,0.3-2.1,0.3c-2.3,0-4.1-1.2-5.3-2.8c-0.1,0.1-0.2,0.3-0.3,0.4c0.7,3,3.4,5.6,7.3,4.5 c11.7-3.2,19.8-14.6,19.8-14.6c-0.5,0-1,0-1.5,0C99.7,54.9,93.2,61.1,84.9,63.4z"/><path class="st5" d="M76.5,58.6c-0.2-0.8-0.3-1.6-0.3-2.4c-0.7-0.3-1.3-0.6-1.9-0.9c-1.8-1-3.1-2.2-4.2-3.5c-1,0.2-2,0.3-3,0.3 c-0.3,0-0.6,0-0.9,0c-0.7,0-1.5-0.2-2.2-0.3c-1,1.3-2.4,2.5-4.2,3.6c-0.6,0.3-1.2,0.6-1.9,0.9c0,0.8-0.1,1.6-0.3,2.4 c0,0.1-0.1,0.2-0.1,0.3c0,0.1,0.1,0.1,0.1,0.2c0.3,0.6,0.7,1.2,1.1,1.8c2.2,1.4,5.1,2.3,8.4,2.3c3.1,0,5.9-0.8,8.1-2.1 C75.6,60.3,76.1,59.6,76.5,58.6C76.4,58.7,76.4,58.7,76.5,58.6z"/><path class="st5" d="M51.1,63.6c-0.7,0-1.3-0.1-2.1-0.3C40.7,61,34.3,54.8,31,51.1c-0.5,0-1,0-1.5,0c0,0,8.1,11.4,19.8,14.6 c3.8,1,6.5-1.4,7.3-4.3c-0.1-0.2-0.2-0.3-0.3-0.5C55.1,62.5,53.4,63.6,51.1,63.6z"/><path class="st5" d="M63,49.4c1.7-2.9,2.2-6.6,0-10.6c-1.8-3.3-4.2-5.8-6.8-7.7c-0.6,2.4-0.9,4.8-1,7.2C55.2,44.4,58.8,48,63,49.4 z"/><path d="M105.3,47.3c-0.2-0.3-0.5-0.5-0.9-0.5c0,0,0,0,0,0c-2.6,0-5,0.1-7.3,0.3c-1.3,0.1-2.6,0.2-3.8,0.3 c2.1-5.4,2.8-12.1,1.8-20.1c-0.1-0.9-0.2-1.8-0.4-2.8c-0.1-0.5-0.5-0.8-1-0.8c-0.5,0-7.6,0.2-14.6,4.1c-3-10.6-10-18.4-10.4-18.8 c-0.2-0.2-0.5-0.3-0.7-0.3c-0.2,0-0.5,0.1-0.7,0.3c-6,6.3-10.1,12.7-12.3,19.1c-7.2-4.2-14.6-4.3-15.1-4.3c-0.5,0-0.9,0.4-1,0.8 c-0.2,1-0.3,1.9-0.4,2.9c-0.9,7.9-0.3,14.5,1.8,19.9c-1.5-0.2-3.1-0.3-4.7-0.4c-2-0.1-4.1-0.2-6.3-0.2c0,0,0,0,0,0 c-0.4,0-0.7,0.2-0.9,0.5c-0.2,0.3-0.1,0.7,0.1,1c0.1,0.1,0.9,1.3,2.3,2.8c3.3,3.7,9.7,9.9,18.1,12.2c0.7,0.2,1.4,0.3,2.1,0.3 c2.3,0,4-1.1,5.2-2.6c0.1,0.2,0.2,0.3,0.3,0.5c0.2,0.3,0.4,0.7,0.7,1c0.5,0.6,1,1.2,1.6,1.7c0,0.1-0.1,0.1-0.1,0.2 c-0.5,1.6-1.9,2.2-2.5,2.4l-0.2,0.1c-2.2,0.9-3.6,3-3.8,5.4c-1.5,0.4-2.6,1.8-2.6,3.4c0,1.9,1.6,3.5,3.5,3.5s3.5-1.6,3.5-3.5 c0-1.6-1-2.9-2.5-3.3c0.2-1.6,1.2-3,2.6-3.6l0.1,0c0.7-0.3,2.7-1.1,3.5-3.2c1.2,0.7,2.5,1.2,3.9,1.5c0,1.8-1.2,3.4-2.9,4.1 c-2.3,1-3.9,3.3-3.9,5.9v3.3c0,0.1,0,0.2,0.1,0.3c-2,0.4-3.5,2.2-3.5,4.4c0,2.1,1.5,3.9,3.5,4.3c0,0.1-0.1,0.2-0.1,0.3V100 c-2,0.5-3.5,2.2-3.5,4.3c0,2.5,2,4.5,4.5,4.5s4.5-2,4.5-4.5c0-2.1-1.5-3.9-3.5-4.3V89.4c0-0.1,0-0.2-0.1-0.3 c2-0.4,3.5-2.2,3.5-4.3c0-2.1-1.5-3.9-3.5-4.4c0-0.1,0.1-0.2,0.1-0.3v-3.3c0-1.8,1-3.4,2.7-4.1c2.4-1,4-3.2,4.1-5.7 c0.1,0,0.2,0,0.4,0l0.2,21.8c0,0,0,0.1,0,0.1c-2.8,0.4-5,2.9-5,5.8c0,3.2,2.6,5.9,5.9,5.9s5.9-2.6,5.9-5.9c0-2.9-2.1-5.3-4.8-5.8 c0-0.1,0-0.1,0-0.2l-0.2-21.9c1.7-0.3,3.3-0.9,4.8-1.8c0.4,0.9,1.1,1.5,1.7,2c0.1,0,0.1,0.1,0.2,0.1c-1.6,1-2.5,2.5-2.5,4.2v2.8 c-1.8,0.5-3.2,2.2-3.2,4.3c0,2.5,2,4.5,4.5,4.5c2.5,0,4.5-2,4.5-4.5c0-2.2-1.6-4-3.7-4.4v-2.7c0-1.3,1-2.4,2.6-3 c1.4,0.8,2.3,2.2,2.3,3.9v10.8c-2.4,0.5-4.2,2.6-4.2,5.1c0,2.9,2.3,5.2,5.2,5.2c2.9,0,5.2-2.3,5.2-5.2c0-2.5-1.8-4.6-4.2-5.1V72.3 c0-2.6-1.5-5-3.9-6c-0.5-0.2-0.9-0.5-1.3-0.8c-0.7-0.6-1.1-1.1-1.4-1.7c0,0,0,0,0,0c0.8-0.7,1.5-1.6,2.1-2.5 c0.1-0.1,0.2-0.3,0.3-0.4c1.1,1.6,2.9,2.8,5.3,2.8c0.6,0,1.3-0.1,2.1-0.3c8.3-2.3,14.8-8.5,18.1-12.2c1.4-1.6,2.2-2.7,2.3-2.8 C105.5,48.1,105.5,47.7,105.3,47.3z M54.8,75.5c0,0.8-0.7,1.5-1.5,1.5s-1.5-0.7-1.5-1.5s0.7-1.5,1.5-1.5S54.8,74.6,54.8,75.5z  M61.2,104.3c0,1.4-1.1,2.5-2.5,2.5s-2.5-1.1-2.5-2.5s1.1-2.5,2.5-2.5S61.2,102.9,61.2,104.3z M61.2,84.8c0,1.4-1.1,2.5-2.5,2.5 s-2.5-1.1-2.5-2.5s1.1-2.5,2.5-2.5S61.2,83.4,61.2,84.8z M76.7,78.4c0,1.4-1.1,2.5-2.5,2.5c-1.4,0-2.5-1.1-2.5-2.5 c0-1.4,1.1-2.5,2.5-2.5C75.6,76,76.7,77.1,76.7,78.4z M80.8,85c1.8,0,3.2,1.4,3.2,3.2s-1.4,3.2-3.2,3.2s-3.2-1.4-3.2-3.2 S79.1,85,80.8,85z M78,31c0.6,2.9,0.9,5.9,0.5,9c-0.6,5.3-3.8,8.3-7.6,9.5c-1.8-2.9-2.2-6.6-0.1-10.6C72.8,35.4,75.3,32.8,78,31z  M68.1,11.1c1.9,2.3,7.1,9.2,9.4,17.8c-0.1,0.1-0.3,0.2-0.4,0.3c-3,2.1-5.8,4.9-7.9,8.8c-1.9,3.5-2.4,8.1-0.3,12.1 c-0.9,0.1-1.7,0.2-2.6,0.1c-0.4,0-0.8-0.1-1.2-0.1c2.1-4,1.6-8.5-0.3-12c-2-3.6-4.5-6.3-7.2-8.3c-0.2-0.2-0.5-0.3-0.7-0.5 C58.8,23.1,62.6,17,68.1,11.1z M63.1,38.9c2.2,4,1.7,7.7,0,10.6c-4.2-1.4-7.9-5-7.7-11.1c0-2.4,0.4-4.8,1-7.2 C58.9,33.1,61.3,35.5,63.1,38.9z M55.6,58c-0.7,2.3-2.8,4.2-6,3.3c-6.8-1.9-12.4-6.6-15.8-10.1c-0.9-0.9-1.7-1.8-2.2-2.5 c1.7,0,3.3,0.1,4.9,0.2c1.7,0.1,3.4,0.3,5,0.5c0.3,0.6,0.6,1.1,0.9,1.6c2.7,4.4,6.6,6.2,10.5,6.2c1,0,2-0.1,3-0.4 C55.8,57.3,55.7,57.6,55.6,58z M43.9,49.8c3.2,0.5,6,1.1,8.5,2c0,0,0,0,0,0c1.8,0.6,2.8,1.8,3.2,3.1c-4,1-8.6-0.1-11.5-4.9h0 C44,49.9,44,49.8,43.9,49.8z M53.1,49.8c-2.9-1-6.4-1.7-10.3-2.3c-2.3-5.1-3-11.8-2.1-19.8c0.1-0.7,0.1-1.4,0.2-2.1 c2.2,0.2,8.1,1,13.6,4.3c-0.4,1.3-0.7,2.7-0.9,4c-0.2,1.4-0.3,2.9-0.4,4.3c-0.1,6.8,3.8,11,8.5,12.8c-0.9,1-1.9,1.8-3.1,2.5 c-0.4,0.2-0.8,0.4-1.2,0.6C56.9,52.3,55.5,50.6,53.1,49.8z M71.9,94.7c0,2.1-1.7,3.9-3.9,3.9s-3.9-1.7-3.9-3.9s1.7-3.9,3.9-3.9 S71.9,92.6,71.9,94.7z M66.9,65c-3.2,0-6.1-1.4-8.1-3.9c-0.1-0.1-0.1-0.2-0.2-0.3c-0.4-0.6-0.8-1.2-1.1-1.8c0-0.1-0.1-0.1-0.1-0.2 c0-0.1,0.1-0.2,0.1-0.3c0.2-0.8,0.3-1.6,0.3-2.4c0.7-0.3,1.3-0.6,1.9-0.9c1.8-1,3.2-2.3,4.2-3.6c0.7,0.2,1.5,0.3,2.2,0.3 c0.3,0,0.6,0,0.9,0c1,0,2-0.1,3-0.3c1,1.3,2.4,2.5,4.2,3.5c0.6,0.4,1.3,0.7,1.9,0.9c0,0.8,0.1,1.6,0.3,2.4c0,0,0,0.1-0.1,0.1 c-0.4,0.8-0.8,1.6-1.3,2.3C73.1,63.5,70.2,65,66.9,65z M76.5,54.2c-0.4-0.2-0.9-0.4-1.3-0.6c-1.1-0.6-2.1-1.5-3-2.4 c4.1-1.5,7.6-5.1,8.3-11c0.3-2.4,0.2-4.7-0.1-7c-0.1-1.1-0.3-2.3-0.6-3.4c5.4-3.2,11.1-3.9,13.2-4.1c0.1,0.6,0.1,1.3,0.2,1.9 c0.9,8.1,0.2,14.8-2.1,20c-3.9,0.5-7.3,1.3-10.2,2.3C78.5,50.7,77.1,52.3,76.5,54.2z M90,49.8c0,0.1-0.1,0.1-0.1,0.2 c-2.9,4.8-7.5,5.8-11.5,4.9c0.4-1.3,1.4-2.5,3.2-3.1c0,0,0,0,0,0C84,51,86.8,50.3,90,49.8z M84.4,61.4c-3.1,0.9-5.3-1.1-6-3.3 c-0.1-0.4-0.2-0.8-0.2-1.2c1,0.2,2,0.3,3,0.3c3.8,0,7.8-1.8,10.5-6.2c0.3-0.5,0.6-1,0.8-1.5c1.3-0.2,2.6-0.3,4-0.4 c1.9-0.1,3.8-0.2,5.9-0.3c-0.6,0.7-1.3,1.5-2.2,2.5C96.7,54.8,91.1,59.6,84.4,61.4z"/></g></svg>